<?xml version="1.0" encoding="UTF-8" standalone="no"?><svg xmlns="http://www.w3.org/2000/svg" xmlns:xlink="http://www.w3.org/1999/xlink" contentStyleType="text/css" height="499px" preserveAspectRatio="none" style="width:450px;height:499px;background:#FFFFFF;" version="1.1" viewBox="0 0 450 499" width="450px" zoomAndPan="magnify"><defs/><g><!--MD5=[82b674517271dcb88c45f9b50e70c1c4]
class Batch--><g id="elem_Batch"><rect codeLine="2" fill="#F1F1F1" height="130.4414" id="Batch" rx="2.5" ry="2.5" style="stroke:#181818;stroke-width:0.5;" width="208" x="7" y="7"/><ellipse cx="88.25" cy="23" fill="#ADD1B2" rx="11" ry="11" style="stroke:#181818;stroke-width:1.0;"/><path d="M91.8643,29.5 L84.1445,29.5 L84.1445,17.1069 L91.8643,17.1069 L91.8643,19.2651 L86.5933,19.2651 L86.5933,21.938 L91.3662,21.938 L91.3662,24.0962 L86.5933,24.0962 L86.5933,27.3418 L91.8643,27.3418 Z " fill="#000000"/><text fill="#000000" font-family="sans-serif" font-size="14" lengthAdjust="spacing" textLength="37" x="108.75" y="28.291">Batch</text><line style="stroke:#181818;stroke-width:0.5;" x1="8" x2="214" y1="39" y2="39"/><ellipse cx="18" cy="52.7441" fill="#000000" rx="3" ry="3" style="stroke:#000000;stroke-width:1.0;"/><text fill="#000000" font-family="sans-serif" font-size="14" lengthAdjust="spacing" textLength="167" x="27" y="56.5352">id : number «generated»</text><line style="stroke:#181818;stroke-width:1.0;" x1="8" x2="214" y1="63.4883" y2="63.4883"/><ellipse cx="18" cy="77.2324" fill="#000000" rx="3" ry="3" style="stroke:#000000;stroke-width:1.0;"/><text fill="#000000" font-family="sans-serif" font-size="14" lengthAdjust="spacing" textLength="77" x="27" y="81.0234">name : text</text><text fill="#000000" font-family="sans-serif" font-size="14" lengthAdjust="spacing" textLength="121" x="27" y="97.5117">assigned_to : text</text><text fill="#000000" font-family="sans-serif" font-size="14" lengthAdjust="spacing" textLength="77" x="27" y="114">notes : text</text><text fill="#000000" font-family="sans-serif" font-size="14" lengthAdjust="spacing" textLength="182" x="27" y="130.4883">datetime_added : datetime</text></g><!--MD5=[44a1b4afaef76c16e6c9ec4990ad0c8d]
class Item--><g id="elem_Item"><rect codeLine="11" fill="#F1F1F1" height="295.3242" id="Item" rx="2.5" ry="2.5" style="stroke:#181818;stroke-width:0.5;" width="194" x="14" y="197.45"/><ellipse cx="91.75" cy="213.45" fill="#ADD1B2" rx="11" ry="11" style="stroke:#181818;stroke-width:1.0;"/><path d="M95.3643,219.95 L87.6445,219.95 L87.6445,207.5569 L95.3643,207.5569 L95.3643,209.7151 L90.0933,209.7151 L90.0933,212.388 L94.8662,212.388 L94.8662,214.5462 L90.0933,214.5462 L90.0933,217.7918 L95.3643,217.7918 Z " fill="#000000"/><text fill="#000000" font-family="sans-serif" font-size="14" lengthAdjust="spacing" textLength="30" x="112.25" y="218.741">Item</text><line style="stroke:#181818;stroke-width:0.5;" x1="15" x2="207" y1="229.45" y2="229.45"/><ellipse cx="25" cy="243.1941" fill="#000000" rx="3" ry="3" style="stroke:#000000;stroke-width:1.0;"/><text fill="#000000" font-family="sans-serif" font-size="14" lengthAdjust="spacing" textLength="167" x="34" y="246.9852">id : number «generated»</text><line style="stroke:#181818;stroke-width:1.0;" x1="15" x2="207" y1="253.9383" y2="253.9383"/><ellipse cx="25" cy="267.6824" fill="#000000" rx="3" ry="3" style="stroke:#000000;stroke-width:1.0;"/><text fill="#000000" font-family="sans-serif" font-size="14" lengthAdjust="spacing" textLength="139" x="34" y="271.4734">batch : number «FK»</text><text fill="#000000" font-family="sans-serif" font-size="14" lengthAdjust="spacing" textLength="102" x="34" y="287.9617">date : datetime</text><text fill="#000000" font-family="sans-serif" font-size="14" lengthAdjust="spacing" textLength="96" x="34" y="304.45">reporter : text</text><text fill="#000000" font-family="sans-serif" font-size="14" lengthAdjust="spacing" textLength="65" x="34" y="320.9383">title : text</text><text fill="#000000" font-family="sans-serif" font-size="14" lengthAdjust="spacing" textLength="149" x="34" y="337.4266">pool_report : boolean</text><text fill="#000000" font-family="sans-serif" font-size="14" lengthAdjust="spacing" textLength="119" x="34" y="353.9148">publish : boolean</text><text fill="#000000" font-family="sans-serif" font-size="14" lengthAdjust="spacing" textLength="168" x="34" y="370.4031">off_the_record : boolean</text><text fill="#000000" font-family="sans-serif" font-size="14" lengthAdjust="spacing" textLength="156" x="34" y="386.8914">review_status: boolean</text><text fill="#000000" font-family="sans-serif" font-size="14" lengthAdjust="spacing" textLength="103" x="34" y="403.3797">comment : text</text><text fill="#000000" font-family="sans-serif" font-size="14" lengthAdjust="spacing" textLength="133" x="34" y="419.868">body_original : text</text><text fill="#000000" font-family="sans-serif" font-size="14" lengthAdjust="spacing" textLength="116" x="34" y="436.3563">body_clean : text</text><text fill="#000000" font-family="sans-serif" font-size="14" lengthAdjust="spacing" textLength="123" x="34" y="452.8445">body_redact : text</text><text fill="#000000" font-family="sans-serif" font-size="14" lengthAdjust="spacing" textLength="110" x="34" y="469.3328">body_final : text</text><text fill="#000000" font-family="sans-serif" font-size="14" lengthAdjust="spacing" textLength="164" x="34" y="485.8211">last_modified : datetime</text></g><!--MD5=[851e5d818681b84761e6142bc38aa051]
class Redact--><g id="elem_Redact"><rect codeLine="30" fill="#F1F1F1" height="97.4648" id="Redact" rx="2.5" ry="2.5" style="stroke:#181818;stroke-width:0.5;" width="193" x="250.5" y="23.49"/><ellipse cx="319.75" cy="39.49" fill="#ADD1B2" rx="11" ry="11" style="stroke:#181818;stroke-width:1.0;"/><path d="M323.3643,45.99 L315.6445,45.99 L315.6445,33.5969 L323.3643,33.5969 L323.3643,35.7551 L318.0933,35.7551 L318.0933,38.428 L322.8662,38.428 L322.8662,40.5862 L318.0933,40.5862 L318.0933,43.8318 L323.3643,43.8318 Z " fill="#000000"/><text fill="#000000" font-family="sans-serif" font-size="14" lengthAdjust="spacing" textLength="46" x="340.25" y="44.781">Redact</text><line style="stroke:#181818;stroke-width:0.5;" x1="251.5" x2="442.5" y1="55.49" y2="55.49"/><ellipse cx="261.5" cy="69.2341" fill="#000000" rx="3" ry="3" style="stroke:#000000;stroke-width:1.0;"/><text fill="#000000" font-family="sans-serif" font-size="14" lengthAdjust="spacing" textLength="167" x="270.5" y="73.0252">id : number «generated»</text><line style="stroke:#181818;stroke-width:1.0;" x1="251.5" x2="442.5" y1="79.9783" y2="79.9783"/><text fill="#000000" font-family="sans-serif" font-size="14" lengthAdjust="spacing" textLength="77" x="256.5" y="97.5134">name : text</text><text fill="#000000" font-family="sans-serif" font-size="14" lengthAdjust="spacing" textLength="122" x="256.5" y="114.0017">string : JSON Field</text></g><!--MD5=[132c9c821357a75e6be9f42da5fc6fe3]
link Batch to Item--><g id="link_Batch_Item"><path codeLine="38" d="M111,146.4 C111,159.63 111,173.88 111,188.44 " fill="none" id="Batch-Item" style="stroke:#181818;stroke-width:1.0;stroke-dasharray:7.0,7.0;"/><line style="stroke:#181818;stroke-width:1.0;" x1="111" x2="117" y1="188.05" y2="196.05"/><line style="stroke:#181818;stroke-width:1.0;" x1="111" x2="105" y1="188.05" y2="196.05"/><line style="stroke:#181818;stroke-width:1.0;" x1="111" x2="111" y1="188.05" y2="196.05"/><line style="stroke:#181818;stroke-width:1.0;" x1="115" x2="107" y1="186.05" y2="186.05"/><line style="stroke:#181818;stroke-width:1.0;" x1="107" x2="115" y1="142.76" y2="142.76"/><line style="stroke:#181818;stroke-width:1.0;" x1="107" x2="115" y1="145.76" y2="145.76"/><line style="stroke:#181818;stroke-width:1.0;" x1="111" x2="111" y1="146.76" y2="138.76"/></g><!--MD5=[38797f82ea2828be1e4b1212f63f51eb]
@startuml db_schema

entity "Batch" as Batch {
  *id : number <<generated>>
  - -
  *name : text
  assigned_to : text
  notes : text
  datetime_added : datetime
}

entity "Item" as Item {
  *id : number <<generated>>
  - -
  *batch : number <<FK>>
  date : datetime
  reporter : text
  title : text
  pool_report : boolean
  publish : boolean
  off_the_record : boolean
  review_status: boolean
  comment : text
  body_original : text
  body_clean : text
  body_redact : text
  body_final : text
  last_modified : datetime
}

entity "Redact" as Redact {
  *id : number <<generated>>
  - -
  name : text
  string : JSON Field
}


Batch ||..|{ Item

@enduml

PlantUML version 1.2022.7(Mon Aug 22 13:01:30 EDT 2022)
(GPL source distribution)
Java Runtime: Java(TM) SE Runtime Environment
JVM: Java HotSpot(TM) 64-Bit Server VM
Default Encoding: UTF-8
Language: en
Country: US
--></g></svg>