<?xml version="1.0" encoding="us-ascii" standalone="no"?><svg xmlns="http://www.w3.org/2000/svg" xmlns:xlink="http://www.w3.org/1999/xlink" contentStyleType="text/css" height="772px" preserveAspectRatio="none" style="width:222px;height:772px;background:#FFFFFF;" version="1.1" viewBox="0 0 222 772" width="222px" zoomAndPan="magnify"><defs/><g><!--class Batch--><g id="elem_Batch"><rect codeLine="2" fill="#F1F1F1" height="163.418" id="Batch" rx="2.5" ry="2.5" style="stroke:#181818;stroke-width:0.5;" width="208" x="7" y="7"/><ellipse cx="88.25" cy="23" fill="#ADD1B2" rx="11" ry="11" style="stroke:#181818;stroke-width:1.0;"/><path d="M91.8643,29.5 L84.1445,29.5 L84.1445,17.1069 L91.8643,17.1069 L91.8643,19.2651 L86.5933,19.2651 L86.5933,21.938 L91.3662,21.938 L91.3662,24.0962 L86.5933,24.0962 L86.5933,27.3418 L91.8643,27.3418 Z " fill="#000000"/><text fill="#000000" font-family="sans-serif" font-size="14" lengthAdjust="spacing" textLength="37" x="108.75" y="28.291">Batch</text><line style="stroke:#181818;stroke-width:0.5;" x1="8" x2="214" y1="39" y2="39"/><ellipse cx="18" cy="52.7441" fill="#000000" rx="3" ry="3" style="stroke:#000000;stroke-width:1.0;"/><text fill="#000000" font-family="sans-serif" font-size="14" lengthAdjust="spacing" textLength="167" x="27" y="56.5352">id : number &#171;generated&#187;</text><line style="stroke:#181818;stroke-width:1.0;" x1="8" x2="214" y1="63.4883" y2="63.4883"/><ellipse cx="18" cy="77.2324" fill="#000000" rx="3" ry="3" style="stroke:#000000;stroke-width:1.0;"/><text fill="#000000" font-family="sans-serif" font-size="14" lengthAdjust="spacing" textLength="77" x="27" y="81.0234">name : text</text><text fill="#000000" font-family="sans-serif" font-size="14" lengthAdjust="spacing" textLength="121" x="27" y="97.5117">assigned_to : text</text><text fill="#000000" font-family="sans-serif" font-size="14" lengthAdjust="spacing" textLength="77" x="27" y="114">notes : text</text><text fill="#000000" font-family="sans-serif" font-size="14" lengthAdjust="spacing" textLength="182" x="27" y="130.4883">datetime_added : datetime</text><text fill="#000000" font-family="sans-serif" font-size="14" lengthAdjust="spacing" textLength="149" x="27" y="146.9766">last_export : datetime</text><text fill="#000000" font-family="sans-serif" font-size="14" lengthAdjust="spacing" textLength="137" x="27" y="163.4648">export_zip: file field</text></g><!--class File--><g id="elem_File"><rect codeLine="13" fill="#F1F1F1" height="179.9063" id="File" rx="2.5" ry="2.5" style="stroke:#181818;stroke-width:0.5;" width="200" x="11" y="585.74"/><ellipse cx="94.75" cy="601.74" fill="#ADD1B2" rx="11" ry="11" style="stroke:#181818;stroke-width:1.0;"/><path d="M98.3643,608.24 L90.6445,608.24 L90.6445,595.8469 L98.3643,595.8469 L98.3643,598.0051 L93.0933,598.0051 L93.0933,600.678 L97.8662,600.678 L97.8662,602.8362 L93.0933,602.8362 L93.0933,606.0818 L98.3643,606.0818 Z " fill="#000000"/><text fill="#000000" font-family="sans-serif" font-size="14" lengthAdjust="spacing" textLength="24" x="115.25" y="607.031">File</text><line style="stroke:#181818;stroke-width:0.5;" x1="12" x2="210" y1="617.74" y2="617.74"/><ellipse cx="22" cy="631.4841" fill="#000000" rx="3" ry="3" style="stroke:#000000;stroke-width:1.0;"/><text fill="#000000" font-family="sans-serif" font-size="14" lengthAdjust="spacing" textLength="167" x="31" y="635.2752">id : number &#171;generated&#187;</text><ellipse cx="22" cy="647.9724" fill="#000000" rx="3" ry="3" style="stroke:#000000;stroke-width:1.0;"/><text fill="#000000" font-family="sans-serif" font-size="14" lengthAdjust="spacing" textLength="131" x="31" y="651.7634">item : number &#171;FK&#187;</text><text fill="#000000" font-family="sans-serif" font-size="14" lengthAdjust="spacing" textLength="77" x="31" y="668.2517">name : text</text><text fill="#000000" font-family="sans-serif" font-size="14" lengthAdjust="spacing" textLength="127" x="31" y="684.74">content_type : text</text><text fill="#000000" font-family="sans-serif" font-size="14" lengthAdjust="spacing" textLength="174" x="31" y="701.2283">content_disposition : text</text><text fill="#000000" font-family="sans-serif" font-size="14" lengthAdjust="spacing" textLength="111" x="31" y="717.7166">content_id : text</text><text fill="#000000" font-family="sans-serif" font-size="14" lengthAdjust="spacing" textLength="115" x="31" y="734.2048">disposition : text</text><text fill="#000000" font-family="sans-serif" font-size="14" lengthAdjust="spacing" textLength="88" x="31" y="750.6931">file : file field</text><line style="stroke:#181818;stroke-width:0.5;" x1="12" x2="210" y1="757.6463" y2="757.6463"/></g><!--class Item--><g id="elem_Item"><rect codeLine="24" fill="#F1F1F1" height="295.3242" id="Item" rx="2.5" ry="2.5" style="stroke:#181818;stroke-width:0.5;" width="194" x="14" y="230.42"/><ellipse cx="91.75" cy="246.42" fill="#ADD1B2" rx="11" ry="11" style="stroke:#181818;stroke-width:1.0;"/><path d="M95.3643,252.92 L87.6445,252.92 L87.6445,240.5269 L95.3643,240.5269 L95.3643,242.6851 L90.0933,242.6851 L90.0933,245.358 L94.8662,245.358 L94.8662,247.5162 L90.0933,247.5162 L90.0933,250.7618 L95.3643,250.7618 Z " fill="#000000"/><text fill="#000000" font-family="sans-serif" font-size="14" lengthAdjust="spacing" textLength="30" x="112.25" y="251.711">Item</text><line style="stroke:#181818;stroke-width:0.5;" x1="15" x2="207" y1="262.42" y2="262.42"/><ellipse cx="25" cy="276.1641" fill="#000000" rx="3" ry="3" style="stroke:#000000;stroke-width:1.0;"/><text fill="#000000" font-family="sans-serif" font-size="14" lengthAdjust="spacing" textLength="167" x="34" y="279.9552">id : number &#171;generated&#187;</text><line style="stroke:#181818;stroke-width:1.0;" x1="15" x2="207" y1="286.9083" y2="286.9083"/><ellipse cx="25" cy="300.6524" fill="#000000" rx="3" ry="3" style="stroke:#000000;stroke-width:1.0;"/><text fill="#000000" font-family="sans-serif" font-size="14" lengthAdjust="spacing" textLength="139" x="34" y="304.4434">batch : number &#171;FK&#187;</text><text fill="#000000" font-family="sans-serif" font-size="14" lengthAdjust="spacing" textLength="102" x="34" y="320.9317">date : datetime</text><text fill="#000000" font-family="sans-serif" font-size="14" lengthAdjust="spacing" textLength="96" x="34" y="337.42">reporter : text</text><text fill="#000000" font-family="sans-serif" font-size="14" lengthAdjust="spacing" textLength="65" x="34" y="353.9083">title : text</text><text fill="#000000" font-family="sans-serif" font-size="14" lengthAdjust="spacing" textLength="149" x="34" y="370.3966">pool_report : boolean</text><text fill="#000000" font-family="sans-serif" font-size="14" lengthAdjust="spacing" textLength="119" x="34" y="386.8848">publish : boolean</text><text fill="#000000" font-family="sans-serif" font-size="14" lengthAdjust="spacing" textLength="168" x="34" y="403.3731">off_the_record : boolean</text><text fill="#000000" font-family="sans-serif" font-size="14" lengthAdjust="spacing" textLength="118" x="34" y="419.8614">review_status: int</text><text fill="#000000" font-family="sans-serif" font-size="14" lengthAdjust="spacing" textLength="77" x="34" y="436.3497">notes : text</text><text fill="#000000" font-family="sans-serif" font-size="14" lengthAdjust="spacing" textLength="133" x="34" y="452.838">body_original : text</text><text fill="#000000" font-family="sans-serif" font-size="14" lengthAdjust="spacing" textLength="116" x="34" y="469.3262">body_clean : text</text><text fill="#000000" font-family="sans-serif" font-size="14" lengthAdjust="spacing" textLength="123" x="34" y="485.8145">body_redact : text</text><text fill="#000000" font-family="sans-serif" font-size="14" lengthAdjust="spacing" textLength="110" x="34" y="502.3028">body_final : text</text><text fill="#000000" font-family="sans-serif" font-size="14" lengthAdjust="spacing" textLength="164" x="34" y="518.7911">last_modified : datetime</text></g><!--link Batch to Item--><g id="link_Batch_Item"><path codeLine="43" d="M111,178.91 C111,197.41 111,201.64 111,221.95 " fill="none" id="Batch-Item" style="stroke:#181818;stroke-width:1.0;stroke-dasharray:7.0,7.0;"/><line style="stroke:#181818;stroke-width:1.0;" x1="107" x2="115" y1="174.91" y2="174.91"/><line style="stroke:#181818;stroke-width:1.0;" x1="107" x2="115" y1="177.91" y2="177.91"/><line style="stroke:#181818;stroke-width:1.0;" x1="111" x2="111" y1="178.91" y2="170.91"/><line style="stroke:#181818;stroke-width:1.0;" x1="111" x2="117" y1="221.95" y2="229.95"/><line style="stroke:#181818;stroke-width:1.0;" x1="111" x2="105" y1="221.95" y2="229.95"/><line style="stroke:#181818;stroke-width:1.0;" x1="111" x2="111" y1="221.95" y2="229.95"/><line style="stroke:#181818;stroke-width:1.0;" x1="115" x2="107" y1="219.95" y2="219.95"/></g><!--link Item to File--><g id="link_Item_File"><path codeLine="44" d="M111,534.02 C111,554.31 111,558.62 111,577.42 " fill="none" id="Item-File" style="stroke:#181818;stroke-width:1.0;stroke-dasharray:7.0,7.0;"/><line style="stroke:#181818;stroke-width:1.0;" x1="107" x2="115" y1="530.02" y2="530.02"/><line style="stroke:#181818;stroke-width:1.0;" x1="107" x2="115" y1="533.02" y2="533.02"/><line style="stroke:#181818;stroke-width:1.0;" x1="111" x2="111" y1="534.02" y2="526.02"/><line style="stroke:#181818;stroke-width:1.0;" x1="111" x2="117" y1="577.42" y2="585.42"/><line style="stroke:#181818;stroke-width:1.0;" x1="111" x2="105" y1="577.42" y2="585.42"/><line style="stroke:#181818;stroke-width:1.0;" x1="111" x2="111" y1="577.42" y2="585.42"/><line style="stroke:#181818;stroke-width:1.0;" x1="115" x2="107" y1="575.42" y2="575.42"/></g><!--SRC=[ZL91Ri8m4Bpd5HR7Il00X3XKAbBLHrXEl0ahETx8NYYKzEzTcnGmfMelaJqpiMV62vwHZshsRBZPpfI9Ag_KgLBg2QrQAh_hQmXgjUh0Gp0CThqMSZvF2czw40t3WMLhOiJEWzLCLz0JGxnkhPp0s8Csra8w_niGpfd86Wu31Iw9CwO_S5Yg5Xt81vojFglgPVA_4JJRJuli_W__YMReRmMRjuafKodLa6VmhFauFCGjne4YCf9_H6SR5_GNSOvLf4ke98GfuQkupGdJuh_lK-V7_9anTLjM721LB9gB9xdMtSGTY9m-gmIiPGV69tnNEupR0gEsrRm5aJSKR445s2EywyY6Tt6fq3-OaPhiKLF03hrnTt2Jphd30bZJy1tObZ_dsUh9efHRZ9rKV1xvSLminbEkjyeTJq2QgEeB]--></g></svg>