<?xml version="1.0" encoding="UTF-8" standalone="no"?><svg xmlns="http://www.w3.org/2000/svg" xmlns:xlink="http://www.w3.org/1999/xlink" contentStyleType="text/css" height="739px" preserveAspectRatio="none" style="width:222px;height:739px;background:#FFFFFF;" version="1.1" viewBox="0 0 222 739" width="222px" zoomAndPan="magnify"><defs/><g><!--MD5=[82b674517271dcb88c45f9b50e70c1c4]
class Batch--><g id="elem_Batch"><rect codeLine="2" fill="#F1F1F1" height="130.4414" id="Batch" rx="2.5" ry="2.5" style="stroke:#181818;stroke-width:0.5;" width="208" x="7" y="7"/><ellipse cx="88.25" cy="23" fill="#ADD1B2" rx="11" ry="11" style="stroke:#181818;stroke-width:1.0;"/><path d="M91.8643,29.5 L84.1445,29.5 L84.1445,17.1069 L91.8643,17.1069 L91.8643,19.2651 L86.5933,19.2651 L86.5933,21.938 L91.3662,21.938 L91.3662,24.0962 L86.5933,24.0962 L86.5933,27.3418 L91.8643,27.3418 Z " fill="#000000"/><text fill="#000000" font-family="sans-serif" font-size="14" lengthAdjust="spacing" textLength="37" x="108.75" y="28.291">Batch</text><line style="stroke:#181818;stroke-width:0.5;" x1="8" x2="214" y1="39" y2="39"/><ellipse cx="18" cy="52.7441" fill="#000000" rx="3" ry="3" style="stroke:#000000;stroke-width:1.0;"/><text fill="#000000" font-family="sans-serif" font-size="14" lengthAdjust="spacing" textLength="167" x="27" y="56.5352">id : number «generated»</text><line style="stroke:#181818;stroke-width:1.0;" x1="8" x2="214" y1="63.4883" y2="63.4883"/><ellipse cx="18" cy="77.2324" fill="#000000" rx="3" ry="3" style="stroke:#000000;stroke-width:1.0;"/><text fill="#000000" font-family="sans-serif" font-size="14" lengthAdjust="spacing" textLength="77" x="27" y="81.0234">name : text</text><text fill="#000000" font-family="sans-serif" font-size="14" lengthAdjust="spacing" textLength="121" x="27" y="97.5117">assigned_to : text</text><text fill="#000000" font-family="sans-serif" font-size="14" lengthAdjust="spacing" textLength="77" x="27" y="114">notes : text</text><text fill="#000000" font-family="sans-serif" font-size="14" lengthAdjust="spacing" textLength="182" x="27" y="130.4883">datetime_added : datetime</text></g><!--MD5=[63dd87716ef75a5caca5dce59428e94a]
class File--><g id="elem_File"><rect codeLine="11" fill="#F1F1F1" height="179.9063" id="File" rx="2.5" ry="2.5" style="stroke:#181818;stroke-width:0.5;" width="200" x="11" y="552.76"/><ellipse cx="94.75" cy="568.76" fill="#ADD1B2" rx="11" ry="11" style="stroke:#181818;stroke-width:1.0;"/><path d="M98.3643,575.26 L90.6445,575.26 L90.6445,562.8669 L98.3643,562.8669 L98.3643,565.0251 L93.0933,565.0251 L93.0933,567.698 L97.8662,567.698 L97.8662,569.8562 L93.0933,569.8562 L93.0933,573.1018 L98.3643,573.1018 Z " fill="#000000"/><text fill="#000000" font-family="sans-serif" font-size="14" lengthAdjust="spacing" textLength="24" x="115.25" y="574.051">File</text><line style="stroke:#181818;stroke-width:0.5;" x1="12" x2="210" y1="584.76" y2="584.76"/><ellipse cx="22" cy="598.5041" fill="#000000" rx="3" ry="3" style="stroke:#000000;stroke-width:1.0;"/><text fill="#000000" font-family="sans-serif" font-size="14" lengthAdjust="spacing" textLength="167" x="31" y="602.2952">id : number «generated»</text><ellipse cx="22" cy="614.9924" fill="#000000" rx="3" ry="3" style="stroke:#000000;stroke-width:1.0;"/><text fill="#000000" font-family="sans-serif" font-size="14" lengthAdjust="spacing" textLength="131" x="31" y="618.7834">item : number «FK»</text><text fill="#000000" font-family="sans-serif" font-size="14" lengthAdjust="spacing" textLength="77" x="31" y="635.2717">name : text</text><text fill="#000000" font-family="sans-serif" font-size="14" lengthAdjust="spacing" textLength="127" x="31" y="651.76">content_type : text</text><text fill="#000000" font-family="sans-serif" font-size="14" lengthAdjust="spacing" textLength="174" x="31" y="668.2483">content_disposition : text</text><text fill="#000000" font-family="sans-serif" font-size="14" lengthAdjust="spacing" textLength="111" x="31" y="684.7366">content_id : text</text><text fill="#000000" font-family="sans-serif" font-size="14" lengthAdjust="spacing" textLength="115" x="31" y="701.2248">disposition : text</text><text fill="#000000" font-family="sans-serif" font-size="14" lengthAdjust="spacing" textLength="90" x="31" y="717.7131">file : FileField</text><line style="stroke:#181818;stroke-width:0.5;" x1="12" x2="210" y1="724.6663" y2="724.6663"/></g><!--MD5=[44a1b4afaef76c16e6c9ec4990ad0c8d]
class Item--><g id="elem_Item"><rect codeLine="22" fill="#F1F1F1" height="295.3242" id="Item" rx="2.5" ry="2.5" style="stroke:#181818;stroke-width:0.5;" width="194" x="14" y="197.44"/><ellipse cx="91.75" cy="213.44" fill="#ADD1B2" rx="11" ry="11" style="stroke:#181818;stroke-width:1.0;"/><path d="M95.3643,219.94 L87.6445,219.94 L87.6445,207.5469 L95.3643,207.5469 L95.3643,209.7051 L90.0933,209.7051 L90.0933,212.378 L94.8662,212.378 L94.8662,214.5362 L90.0933,214.5362 L90.0933,217.7818 L95.3643,217.7818 Z " fill="#000000"/><text fill="#000000" font-family="sans-serif" font-size="14" lengthAdjust="spacing" textLength="30" x="112.25" y="218.731">Item</text><line style="stroke:#181818;stroke-width:0.5;" x1="15" x2="207" y1="229.44" y2="229.44"/><ellipse cx="25" cy="243.1841" fill="#000000" rx="3" ry="3" style="stroke:#000000;stroke-width:1.0;"/><text fill="#000000" font-family="sans-serif" font-size="14" lengthAdjust="spacing" textLength="167" x="34" y="246.9752">id : number «generated»</text><line style="stroke:#181818;stroke-width:1.0;" x1="15" x2="207" y1="253.9283" y2="253.9283"/><ellipse cx="25" cy="267.6724" fill="#000000" rx="3" ry="3" style="stroke:#000000;stroke-width:1.0;"/><text fill="#000000" font-family="sans-serif" font-size="14" lengthAdjust="spacing" textLength="139" x="34" y="271.4634">batch : number «FK»</text><text fill="#000000" font-family="sans-serif" font-size="14" lengthAdjust="spacing" textLength="102" x="34" y="287.9517">date : datetime</text><text fill="#000000" font-family="sans-serif" font-size="14" lengthAdjust="spacing" textLength="96" x="34" y="304.44">reporter : text</text><text fill="#000000" font-family="sans-serif" font-size="14" lengthAdjust="spacing" textLength="65" x="34" y="320.9283">title : text</text><text fill="#000000" font-family="sans-serif" font-size="14" lengthAdjust="spacing" textLength="149" x="34" y="337.4166">pool_report : boolean</text><text fill="#000000" font-family="sans-serif" font-size="14" lengthAdjust="spacing" textLength="119" x="34" y="353.9048">publish : boolean</text><text fill="#000000" font-family="sans-serif" font-size="14" lengthAdjust="spacing" textLength="168" x="34" y="370.3931">off_the_record : boolean</text><text fill="#000000" font-family="sans-serif" font-size="14" lengthAdjust="spacing" textLength="118" x="34" y="386.8814">review_status: int</text><text fill="#000000" font-family="sans-serif" font-size="14" lengthAdjust="spacing" textLength="77" x="34" y="403.3697">notes : text</text><text fill="#000000" font-family="sans-serif" font-size="14" lengthAdjust="spacing" textLength="133" x="34" y="419.858">body_original : text</text><text fill="#000000" font-family="sans-serif" font-size="14" lengthAdjust="spacing" textLength="116" x="34" y="436.3462">body_clean : text</text><text fill="#000000" font-family="sans-serif" font-size="14" lengthAdjust="spacing" textLength="123" x="34" y="452.8345">body_redact : text</text><text fill="#000000" font-family="sans-serif" font-size="14" lengthAdjust="spacing" textLength="110" x="34" y="469.3228">body_final : text</text><text fill="#000000" font-family="sans-serif" font-size="14" lengthAdjust="spacing" textLength="164" x="34" y="485.8111">last_modified : datetime</text></g><!--MD5=[132c9c821357a75e6be9f42da5fc6fe3]
link Batch to Item--><g id="link_Batch_Item"><path codeLine="41" d="M111,146.83 C111,159.72 111,173.56 111,187.7 " fill="none" id="Batch-Item" style="stroke:#181818;stroke-width:1.0;stroke-dasharray:7.0,7.0;"/><line style="stroke:#181818;stroke-width:1.0;" x1="111" x2="117" y1="187.53" y2="195.53"/><line style="stroke:#181818;stroke-width:1.0;" x1="111" x2="105" y1="187.53" y2="195.53"/><line style="stroke:#181818;stroke-width:1.0;" x1="111" x2="111" y1="187.53" y2="195.53"/><line style="stroke:#181818;stroke-width:1.0;" x1="115" x2="107" y1="185.53" y2="185.53"/><line style="stroke:#181818;stroke-width:1.0;" x1="107" x2="115" y1="143.27" y2="143.27"/><line style="stroke:#181818;stroke-width:1.0;" x1="107" x2="115" y1="146.27" y2="146.27"/><line style="stroke:#181818;stroke-width:1.0;" x1="111" x2="111" y1="147.27" y2="139.27"/></g><!--MD5=[de26e958009532d2a7466cdd44a295e4]
link Item to File--><g id="link_Item_File"><path codeLine="42" d="M111,502.55 C111,516.3 111,529.95 111,543.03 " fill="none" id="Item-File" style="stroke:#181818;stroke-width:1.0;stroke-dasharray:7.0,7.0;"/><line style="stroke:#181818;stroke-width:1.0;" x1="111" x2="117" y1="542.93" y2="550.93"/><line style="stroke:#181818;stroke-width:1.0;" x1="111" x2="105" y1="542.93" y2="550.93"/><line style="stroke:#181818;stroke-width:1.0;" x1="111" x2="111" y1="542.93" y2="550.93"/><line style="stroke:#181818;stroke-width:1.0;" x1="115" x2="107" y1="540.93" y2="540.93"/><line style="stroke:#181818;stroke-width:1.0;" x1="107" x2="115" y1="498.56" y2="498.56"/><line style="stroke:#181818;stroke-width:1.0;" x1="107" x2="115" y1="501.56" y2="501.56"/><line style="stroke:#181818;stroke-width:1.0;" x1="111" x2="111" y1="502.56" y2="494.56"/></g><!--MD5=[e8b976af8e3aa1ebbdd0d8dbbd008ad7]
@startuml db_schema

entity "Batch" as Batch {
  *id : number <<generated>>
  - -
  *name : text
  assigned_to : text
  notes : text
  datetime_added : datetime
}

Entity "File" as File {
    *id : number <<generated>>
    *item : number <<FK>>
    name : text
    content_type : text
    content_disposition : text
    content_id : text
    disposition : text
    file : FileField
    }

entity "Item" as Item {
  *id : number <<generated>>
  - -
  *batch : number <<FK>>
  date : datetime
  reporter : text
  title : text
  pool_report : boolean
  publish : boolean
  off_the_record : boolean
  review_status: int
  notes : text
  body_original : text
  body_clean : text
  body_redact : text
  body_final : text
  last_modified : datetime
}

Batch ||..|{ Item
Item ||..|{ File

@enduml

PlantUML version 1.2022.7(Mon Aug 22 13:01:30 EDT 2022)
(GPL source distribution)
Java Runtime: Java(TM) SE Runtime Environment
JVM: Java HotSpot(TM) 64-Bit Server VM
Default Encoding: UTF-8
Language: en
Country: US
--></g></svg>